<svg xmlns="http://www.w3.org/2000/svg" xmlns:xlink="http://www.w3.org/1999/xlink" width="120" zoomAndPan="magnify" viewBox="0 0 375 374.999991" height="120" preserveAspectRatio="xMidYMid meet" version="1.0"><defs><g/><clipPath id="4d0c051f04"><path d="M 8.605469 12 L 364.855469 12 L 364.855469 276 L 8.605469 276 Z M 8.605469 12 " clip-rule="nonzero"/></clipPath><clipPath id="8fa912c2db"><path d="M 52.28125 13.851562 L 78.660156 57.011719 L 79.050781 57.402344 C 115.207031 80.054688 149.988281 102.511719 185.652344 125.945312 L 186.730469 124.675781 L 130.058594 63.652344 L 129.960938 63.554688 L 83.546875 27.230469 L 83.351562 27.132812 L 53.453125 12.582031 Z M 22.773438 194.101562 L 34.984375 194.980469 L 20.621094 176.328125 L 18.960938 177.011719 L 20.425781 189.316406 C 20.425781 189.609375 20.328125 190 19.9375 190.097656 L 8.605469 195.46875 L 9.09375 197.03125 L 22.378906 194.199219 C 22.476562 194.199219 22.578125 194.199219 22.675781 194.199219 Z M 38.503906 208.0625 L 21.597656 212.652344 L 20.914062 213.140625 L 14.855469 222.222656 L 15.933594 223.6875 L 28.828125 219.878906 L 29.316406 219.585938 L 39.480469 209.625 L 38.601562 208.160156 Z M 65.273438 195.957031 L 42.019531 191.953125 L 41.238281 193.515625 L 50.617188 201.519531 C 50.910156 201.714844 51.007812 202.105469 50.910156 202.496094 L 46.222656 214.117188 L 47.6875 214.898438 L 55.601562 203.765625 C 55.601562 203.667969 55.699219 203.667969 55.796875 203.570312 L 65.375 195.957031 Z M 86.671875 180.625 L 34.007812 174.765625 L 33.617188 176.328125 L 68.011719 187.949219 L 68.695312 187.949219 L 86.773438 182.285156 L 86.574219 180.625 Z M 94.394531 176.621094 L 110.808594 178.671875 C 116.183594 173.011719 120.1875 169.105469 125.953125 163.832031 L 125.171875 162.269531 L 107.191406 164.90625 L 106.800781 165.003906 L 97.617188 169.984375 L 97.128906 170.472656 L 94.394531 176.523438 Z M 68.207031 210.503906 L 89.605469 204.15625 L 90.09375 203.863281 L 106.898438 187.363281 L 106.019531 185.898438 L 77.976562 193.515625 L 77.292969 194.003906 L 67.132812 209.136719 L 68.207031 210.601562 Z M 37.625 233.253906 L 46.613281 234.425781 C 49.25 231.59375 51.304688 229.640625 54.136719 227.007812 L 53.355469 225.445312 L 44.5625 226.714844 L 44.171875 226.8125 L 39.578125 229.25 L 39.089844 229.738281 L 37.527344 233.15625 Z M 55.894531 244.09375 L 28.242188 240.96875 L 27.851562 242.53125 L 45.929688 248.683594 L 46.613281 248.683594 L 55.992188 245.753906 L 55.796875 244.09375 Z M 56.675781 234.816406 L 76.316406 229.25 L 76.902344 228.859375 L 83.351562 220.660156 L 82.277344 219.390625 L 56.089844 233.351562 Z M 99.082031 244.09375 L 96.542969 245.460938 C 96.445312 245.460938 96.347656 245.558594 96.25 245.558594 L 75.144531 247.707031 L 74.460938 248.097656 L 50.617188 273.875 L 51.597656 275.339844 L 91.753906 260.007812 L 92.144531 259.8125 L 120.1875 235.109375 L 119.210938 233.742188 L 100.058594 243.703125 C 99.863281 243.800781 99.667969 243.800781 99.472656 243.800781 C 99.375 243.996094 99.277344 244.191406 99.082031 244.289062 Z M 99.277344 242.140625 L 131.523438 221.734375 L 130.839844 220.171875 L 105.238281 227.007812 L 105.042969 227.007812 L 87.457031 227.980469 L 75.535156 244.191406 L 98.203125 242.628906 L 98.398438 242.53125 C 98.59375 242.433594 98.789062 242.433594 98.984375 242.53125 C 99.082031 242.335938 99.179688 242.238281 99.277344 242.140625 Z M 187.414062 219.976562 L 136.015625 232.863281 L 136.210938 234.425781 L 172.464844 233.351562 L 173.148438 233.15625 L 188.097656 221.539062 L 187.316406 219.976562 Z M 183.503906 179.648438 L 156.046875 176.425781 L 155.851562 176.425781 L 138.558594 170.375 L 95.273438 211.089844 L 96.054688 212.652344 L 136.605469 203.179688 L 136.800781 203.082031 L 183.796875 181.40625 Z M 159.078125 168.910156 L 184.480469 172.910156 L 185.066406 172.910156 L 199.234375 168.324219 L 199.136719 166.566406 L 146.570312 157.875 L 145.886719 159.4375 L 158.6875 168.617188 L 159.175781 168.8125 Z M 194.15625 208.160156 L 195.230469 182.578125 L 146.375 205.914062 L 146.570312 207.671875 L 170.605469 213.433594 L 171.09375 213.433594 Z M 217.117188 192.734375 L 223.46875 170.082031 L 222 169.203125 L 220.4375 170.765625 C 220.339844 170.863281 220.242188 170.863281 220.242188 170.960938 C 220.242188 171.058594 220.144531 171.15625 220.046875 171.15625 L 201.582031 189.804688 L 201.289062 190.488281 L 200.015625 208.746094 L 201.679688 209.429688 L 217.019531 193.222656 L 217.3125 192.734375 Z M 252.585938 160.804688 L 234.214844 174.863281 L 233.824219 175.351562 L 222.882812 201.617188 C 222.785156 201.714844 222.785156 201.8125 222.6875 201.910156 L 189.367188 229.054688 L 190.246094 230.519531 L 225.910156 215.777344 L 226.300781 215.484375 L 256.199219 182.96875 Z M 255.90625 137.761719 L 250.53125 115.011719 L 248.773438 114.914062 L 229.132812 168.324219 L 230.503906 169.398438 L 251.121094 154.945312 L 251.511719 154.359375 L 255.90625 138.25 L 255.90625 137.664062 Z M 300.5625 110.8125 L 365.148438 87.085938 L 364.757812 85.523438 L 295.480469 98.898438 Z M 306.421875 115.011719 L 272.519531 137.46875 L 271.441406 172.816406 L 273.105469 173.203125 L 285.707031 142.15625 C 285.707031 142.058594 285.804688 141.960938 285.804688 141.960938 L 307.496094 116.378906 L 306.421875 115.109375 Z M 269.878906 108.957031 L 265.875 115.5 C 265.777344 115.695312 265.679688 115.792969 265.484375 115.792969 L 261.574219 117.257812 C 261.28125 117.355469 260.890625 117.355469 260.695312 117.0625 C 260.402344 116.769531 260.402344 116.28125 260.695312 115.890625 C 261.085938 115.5 261.476562 114.914062 261.769531 114.328125 C 261.964844 113.742188 262.160156 113.15625 262.160156 112.472656 C 262.160156 111.789062 262.0625 111.203125 261.769531 110.617188 C 261.574219 110.03125 261.183594 109.542969 260.695312 109.054688 C 260.304688 108.664062 259.71875 108.273438 259.132812 107.980469 C 258.546875 107.785156 257.960938 107.589844 257.273438 107.589844 C 256.589844 107.589844 256.003906 107.6875 255.417969 107.980469 C 254.832031 108.175781 254.34375 108.566406 253.855469 109.054688 C 253.464844 109.445312 253.074219 110.03125 252.78125 110.617188 C 252.585938 111.203125 252.390625 111.789062 252.390625 112.472656 C 252.390625 113.15625 252.488281 113.742188 252.78125 114.328125 C 252.976562 114.914062 253.367188 115.402344 253.855469 115.890625 C 254.246094 116.28125 254.734375 116.671875 255.222656 116.867188 C 255.710938 117.0625 256.296875 117.257812 256.882812 117.257812 C 257.175781 117.257812 257.46875 117.453125 257.566406 117.746094 C 257.765625 118.136719 257.46875 118.621094 257.078125 118.816406 L 256.296875 119.109375 L 261.28125 135.90625 C 269.488281 128.386719 277.207031 120.769531 285.21875 112.960938 L 288.152344 110.03125 L 287.46875 108.371094 L 269.78125 108.761719 Z M 237.636719 91.085938 L 263.332031 98.3125 L 263.820312 98.3125 L 289.128906 94.015625 L 289.226562 92.257812 L 258.058594 84.644531 L 257.566406 84.644531 L 237.832031 89.332031 L 237.832031 91.085938 Z M 211.351562 124.285156 L 248.285156 101.632812 L 230.308594 96.164062 L 217.605469 107.296875 L 217.3125 107.6875 L 209.984375 123.015625 L 211.253906 124.1875 Z M 214.574219 134.050781 C 214.28125 134.246094 213.890625 134.246094 213.597656 134.050781 L 185.945312 113.058594 L 184.773438 114.230469 L 207.933594 142.058594 C 207.933594 142.15625 208.03125 142.15625 208.03125 142.253906 L 219.558594 168.8125 L 244.085938 115.695312 L 242.714844 114.523438 L 214.476562 133.953125 Z M 124.78125 49.296875 C 150.769531 72.339844 175.785156 94.40625 204.316406 115.402344 L 205.585938 114.230469 L 194.839844 98.117188 L 194.546875 97.824219 L 105.726562 30.453125 L 104.75 31.625 C 111.394531 37.480469 118.136719 43.4375 124.78125 49.296875 Z M 203.632812 159.535156 L 122.730469 121.84375 L 121.554688 123.113281 L 138.167969 149.574219 L 203.144531 161 L 203.632812 159.4375 Z M 123.804688 91.574219 L 90.582031 76.246094 L 89.507812 77.613281 L 114.324219 111.203125 L 114.8125 111.59375 L 202.460938 150.941406 L 203.242188 149.574219 L 124 91.769531 L 123.804688 91.671875 Z M 123.804688 91.574219 " clip-rule="evenodd"/></clipPath><linearGradient x1="38.578305" gradientTransform="matrix(9.770982, 0, 0, 9.764231, 8.603683, 12.58347)" y1="4.174409" x2="-1.274776" gradientUnits="userSpaceOnUse" y2="24.397879" id="4ff66ba53d"><stop stop-opacity="1" stop-color="rgb(21.998596%, 71.398926%, 100%)" offset="0"/><stop stop-opacity="1" stop-color="rgb(22.105408%, 71.525574%, 99.925232%)" offset="0.25"/><stop stop-opacity="1" stop-color="rgb(22.30072%, 71.757507%, 99.789429%)" offset="0.257812"/><stop stop-opacity="1" stop-color="rgb(22.477722%, 71.969604%, 99.665833%)" offset="0.265625"/><stop stop-opacity="1" stop-color="rgb(22.654724%, 72.180176%, 99.543762%)" offset="0.27248"/><stop stop-opacity="1" stop-color="rgb(22.743225%, 72.285461%, 99.482727%)" offset="0.273438"/><stop stop-opacity="1" stop-color="rgb(22.8302%, 72.390747%, 99.420166%)" offset="0.28125"/><stop stop-opacity="1" stop-color="rgb(23.007202%, 72.601318%, 99.298096%)" offset="0.289062"/><stop stop-opacity="1" stop-color="rgb(23.184204%, 72.81189%, 99.1745%)" offset="0.296875"/><stop stop-opacity="1" stop-color="rgb(23.361206%, 73.022461%, 99.052429%)" offset="0.304688"/><stop stop-opacity="1" stop-color="rgb(23.538208%, 73.233032%, 98.928833%)" offset="0.3125"/><stop stop-opacity="1" stop-color="rgb(23.71521%, 73.443604%, 98.806763%)" offset="0.320313"/><stop stop-opacity="1" stop-color="rgb(23.892212%, 73.654175%, 98.683167%)" offset="0.328125"/><stop stop-opacity="1" stop-color="rgb(24.069214%, 73.864746%, 98.561096%)" offset="0.335938"/><stop stop-opacity="1" stop-color="rgb(24.24469%, 74.075317%, 98.4375%)" offset="0.34375"/><stop stop-opacity="1" stop-color="rgb(24.421692%, 74.285889%, 98.31543%)" offset="0.351563"/><stop stop-opacity="1" stop-color="rgb(24.598694%, 74.49646%, 98.191833%)" offset="0.359375"/><stop stop-opacity="1" stop-color="rgb(24.775696%, 74.707031%, 98.068237%)" offset="0.367188"/><stop stop-opacity="1" stop-color="rgb(24.952698%, 74.917603%, 97.946167%)" offset="0.375"/><stop stop-opacity="1" stop-color="rgb(25.1297%, 75.128174%, 97.822571%)" offset="0.382813"/><stop stop-opacity="1" stop-color="rgb(25.306702%, 75.338745%, 97.7005%)" offset="0.390625"/><stop stop-opacity="1" stop-color="rgb(25.483704%, 75.550842%, 97.576904%)" offset="0.398438"/><stop stop-opacity="1" stop-color="rgb(25.65918%, 75.761414%, 97.454834%)" offset="0.40625"/><stop stop-opacity="1" stop-color="rgb(25.836182%, 75.971985%, 97.331238%)" offset="0.414063"/><stop stop-opacity="1" stop-color="rgb(26.013184%, 76.182556%, 97.209167%)" offset="0.421875"/><stop stop-opacity="1" stop-color="rgb(26.190186%, 76.393127%, 97.085571%)" offset="0.429688"/><stop stop-opacity="1" stop-color="rgb(26.367188%, 76.603699%, 96.963501%)" offset="0.4375"/><stop stop-opacity="1" stop-color="rgb(26.544189%, 76.81427%, 96.839905%)" offset="0.445313"/><stop stop-opacity="1" stop-color="rgb(26.721191%, 77.024841%, 96.717834%)" offset="0.453125"/><stop stop-opacity="1" stop-color="rgb(26.896667%, 77.235413%, 96.594238%)" offset="0.460938"/><stop stop-opacity="1" stop-color="rgb(27.073669%, 77.445984%, 96.472168%)" offset="0.46875"/><stop stop-opacity="1" stop-color="rgb(27.250671%, 77.656555%, 96.348572%)" offset="0.476563"/><stop stop-opacity="1" stop-color="rgb(27.427673%, 77.867126%, 96.224976%)" offset="0.484375"/><stop stop-opacity="1" stop-color="rgb(27.604675%, 78.077698%, 96.102905%)" offset="0.492188"/><stop stop-opacity="1" stop-color="rgb(27.781677%, 78.288269%, 95.979309%)" offset="0.5"/><stop stop-opacity="1" stop-color="rgb(27.958679%, 78.49884%, 95.857239%)" offset="0.507813"/><stop stop-opacity="1" stop-color="rgb(28.135681%, 78.709412%, 95.733643%)" offset="0.515625"/><stop stop-opacity="1" stop-color="rgb(28.311157%, 78.919983%, 95.611572%)" offset="0.523438"/><stop stop-opacity="1" stop-color="rgb(28.488159%, 79.13208%, 95.487976%)" offset="0.53125"/><stop stop-opacity="1" stop-color="rgb(28.665161%, 79.342651%, 95.365906%)" offset="0.539063"/><stop stop-opacity="1" stop-color="rgb(28.842163%, 79.553223%, 95.24231%)" offset="0.546875"/><stop stop-opacity="1" stop-color="rgb(29.019165%, 79.763794%, 95.120239%)" offset="0.554688"/><stop stop-opacity="1" stop-color="rgb(29.196167%, 79.974365%, 94.996643%)" offset="0.5625"/><stop stop-opacity="1" stop-color="rgb(29.373169%, 80.184937%, 94.874573%)" offset="0.570313"/><stop stop-opacity="1" stop-color="rgb(29.550171%, 80.395508%, 94.750977%)" offset="0.578125"/><stop stop-opacity="1" stop-color="rgb(29.725647%, 80.606079%, 94.628906%)" offset="0.585938"/><stop stop-opacity="1" stop-color="rgb(29.902649%, 80.81665%, 94.50531%)" offset="0.59375"/><stop stop-opacity="1" stop-color="rgb(30.079651%, 81.027222%, 94.381714%)" offset="0.601563"/><stop stop-opacity="1" stop-color="rgb(30.256653%, 81.237793%, 94.259644%)" offset="0.609375"/><stop stop-opacity="1" stop-color="rgb(30.433655%, 81.448364%, 94.136047%)" offset="0.617188"/><stop stop-opacity="1" stop-color="rgb(30.610657%, 81.658936%, 94.013977%)" offset="0.625"/><stop stop-opacity="1" stop-color="rgb(30.787659%, 81.869507%, 93.890381%)" offset="0.632813"/><stop stop-opacity="1" stop-color="rgb(30.964661%, 82.080078%, 93.768311%)" offset="0.640625"/><stop stop-opacity="1" stop-color="rgb(31.140137%, 82.290649%, 93.644714%)" offset="0.648438"/><stop stop-opacity="1" stop-color="rgb(31.317139%, 82.501221%, 93.522644%)" offset="0.65625"/><stop stop-opacity="1" stop-color="rgb(31.494141%, 82.713318%, 93.399048%)" offset="0.664063"/><stop stop-opacity="1" stop-color="rgb(31.671143%, 82.923889%, 93.276978%)" offset="0.671875"/><stop stop-opacity="1" stop-color="rgb(31.848145%, 83.13446%, 93.153381%)" offset="0.679688"/><stop stop-opacity="1" stop-color="rgb(32.025146%, 83.345032%, 93.031311%)" offset="0.6875"/><stop stop-opacity="1" stop-color="rgb(32.202148%, 83.555603%, 92.907715%)" offset="0.695313"/><stop stop-opacity="1" stop-color="rgb(32.377625%, 83.766174%, 92.785645%)" offset="0.703125"/><stop stop-opacity="1" stop-color="rgb(32.554626%, 83.976746%, 92.662048%)" offset="0.710938"/><stop stop-opacity="1" stop-color="rgb(32.731628%, 84.187317%, 92.538452%)" offset="0.71875"/><stop stop-opacity="1" stop-color="rgb(32.90863%, 84.397888%, 92.416382%)" offset="0.726563"/><stop stop-opacity="1" stop-color="rgb(33.085632%, 84.608459%, 92.292786%)" offset="0.72752"/><stop stop-opacity="1" stop-color="rgb(33.174133%, 84.713745%, 92.23175%)" offset="0.734375"/><stop stop-opacity="1" stop-color="rgb(33.262634%, 84.819031%, 92.170715%)" offset="0.742188"/><stop stop-opacity="1" stop-color="rgb(33.439636%, 85.029602%, 92.047119%)" offset="0.75"/><stop stop-opacity="1" stop-color="rgb(33.616638%, 85.240173%, 91.925049%)" offset="0.757813"/><stop stop-opacity="1" stop-color="rgb(33.792114%, 85.450745%, 91.801453%)" offset="0.765625"/><stop stop-opacity="1" stop-color="rgb(33.969116%, 85.661316%, 91.679382%)" offset="0.773438"/><stop stop-opacity="1" stop-color="rgb(34.146118%, 85.871887%, 91.555786%)" offset="0.78125"/><stop stop-opacity="1" stop-color="rgb(34.32312%, 86.082458%, 91.433716%)" offset="0.789063"/><stop stop-opacity="1" stop-color="rgb(34.500122%, 86.294556%, 91.31012%)" offset="0.796875"/><stop stop-opacity="1" stop-color="rgb(34.677124%, 86.505127%, 91.188049%)" offset="0.804688"/><stop stop-opacity="1" stop-color="rgb(34.854126%, 86.715698%, 91.064453%)" offset="0.8125"/><stop stop-opacity="1" stop-color="rgb(35.031128%, 86.92627%, 90.942383%)" offset="0.820313"/><stop stop-opacity="1" stop-color="rgb(35.206604%, 87.136841%, 90.818787%)" offset="0.828125"/><stop stop-opacity="1" stop-color="rgb(35.383606%, 87.347412%, 90.69519%)" offset="0.835938"/><stop stop-opacity="1" stop-color="rgb(35.560608%, 87.557983%, 90.57312%)" offset="0.84375"/><stop stop-opacity="1" stop-color="rgb(35.73761%, 87.768555%, 90.449524%)" offset="0.851563"/><stop stop-opacity="1" stop-color="rgb(35.914612%, 87.979126%, 90.327454%)" offset="0.859375"/><stop stop-opacity="1" stop-color="rgb(36.050415%, 88.140869%, 90.232849%)" offset="0.875"/><stop stop-opacity="1" stop-color="rgb(36.099243%, 88.198853%, 90.19928%)" offset="1"/></linearGradient></defs><g clip-path="url(#4d0c051f04)"><g clip-path="url(#8fa912c2db)"><path fill="url(#4ff66ba53d)" d="M 8.605469 12.582031 L 8.605469 275.339844 L 364.855469 275.339844 L 364.855469 12.582031 Z M 8.605469 12.582031 " fill-rule="nonzero"/></g></g><g fill="#000000" fill-opacity="1"><g transform="translate(139.834594, 322.772645)"><g><path d="M 14.78125 -12.265625 L 14.1875 -12.265625 C 13.90625 -13.648438 13.523438 -14.53125 13.046875 -14.90625 C 12.578125 -15.28125 11.632812 -15.46875 10.21875 -15.46875 L 8.875 -15.46875 L 8.875 -2.71875 C 8.875 -1.800781 9.015625 -1.207031 9.296875 -0.9375 C 9.578125 -0.675781 10.234375 -0.519531 11.265625 -0.46875 L 11.265625 0 L 3.984375 0 L 3.984375 -0.46875 C 5.015625 -0.539062 5.660156 -0.710938 5.921875 -0.984375 C 6.191406 -1.253906 6.328125 -1.925781 6.328125 -3 L 6.328125 -15.46875 L 4.984375 -15.46875 C 3.585938 -15.46875 2.648438 -15.273438 2.171875 -14.890625 C 1.703125 -14.503906 1.316406 -13.628906 1.015625 -12.265625 L 0.421875 -12.265625 L 0.578125 -16.515625 L 14.640625 -16.515625 Z M 14.78125 -12.265625 "/></g></g></g><g fill="#000000" fill-opacity="1"><g transform="translate(158.405676, 322.772645)"><g><path d="M 17.15625 -8.15625 C 17.15625 -5.644531 16.382812 -3.597656 14.84375 -2.015625 C 13.3125 -0.441406 11.316406 0.34375 8.859375 0.34375 C 7.753906 0.34375 6.679688 0.117188 5.640625 -0.328125 C 4.609375 -0.785156 3.726562 -1.40625 3 -2.1875 C 2.332031 -2.90625 1.804688 -3.800781 1.421875 -4.875 C 1.035156 -5.945312 0.84375 -7.070312 0.84375 -8.25 C 0.84375 -10.757812 1.609375 -12.820312 3.140625 -14.4375 C 4.671875 -16.050781 6.625 -16.859375 9 -16.859375 C 11.445312 -16.859375 13.46875 -15.984375 15.0625 -14.234375 C 16.457031 -12.703125 17.15625 -10.675781 17.15625 -8.15625 Z M 14.3125 -8.171875 C 14.3125 -11.253906 13.601562 -13.4375 12.1875 -14.71875 C 11.257812 -15.539062 10.195312 -15.953125 9 -15.953125 C 7.601562 -15.953125 6.414062 -15.414062 5.4375 -14.34375 C 4.90625 -13.757812 4.476562 -12.90625 4.15625 -11.78125 C 3.84375 -10.65625 3.6875 -9.460938 3.6875 -8.203125 C 3.6875 -6.828125 3.878906 -5.550781 4.265625 -4.375 C 4.648438 -3.207031 5.164062 -2.335938 5.8125 -1.765625 C 6.726562 -0.953125 7.773438 -0.546875 8.953125 -0.546875 C 10.285156 -0.546875 11.390625 -0.988281 12.265625 -1.875 C 12.867188 -2.457031 13.273438 -3.0625 13.484375 -3.6875 C 14.035156 -5.113281 14.3125 -6.609375 14.3125 -8.171875 Z M 14.3125 -8.171875 "/></g></g></g><g fill="#000000" fill-opacity="1"><g transform="translate(179.743516, 322.772645)"><g><path d="M 13.515625 -12 C 13.515625 -11.164062 13.300781 -10.394531 12.875 -9.6875 C 12.457031 -8.976562 11.875 -8.425781 11.125 -8.03125 C 10.101562 -7.46875 8.648438 -7.1875 6.765625 -7.1875 C 6.265625 -7.1875 5.6875 -7.207031 5.03125 -7.25 L 5.03125 -2.71875 C 5.03125 -1.800781 5.175781 -1.207031 5.46875 -0.9375 C 5.757812 -0.664062 6.394531 -0.507812 7.375 -0.46875 L 7.375 0 L 0.40625 0 L 0.40625 -0.46875 C 1.351562 -0.550781 1.9375 -0.726562 2.15625 -1 C 2.382812 -1.28125 2.5 -1.945312 2.5 -3 L 2.5 -13.796875 C 2.5 -14.691406 2.378906 -15.265625 2.140625 -15.515625 C 1.910156 -15.765625 1.332031 -15.9375 0.40625 -16.03125 L 0.40625 -16.515625 L 6.984375 -16.515625 C 8.160156 -16.515625 9.25 -16.347656 10.25 -16.015625 C 11.25 -15.691406 12 -15.257812 12.5 -14.71875 C 13.175781 -13.976562 13.515625 -13.070312 13.515625 -12 Z M 10.796875 -11.84375 C 10.796875 -13.125 10.394531 -14.066406 9.59375 -14.671875 C 8.800781 -15.273438 7.566406 -15.578125 5.890625 -15.578125 C 5.554688 -15.578125 5.328125 -15.519531 5.203125 -15.40625 C 5.085938 -15.289062 5.03125 -15.066406 5.03125 -14.734375 L 5.03125 -8.25 C 5.613281 -8.195312 6.085938 -8.171875 6.453125 -8.171875 C 9.347656 -8.171875 10.796875 -9.394531 10.796875 -11.84375 Z M 10.796875 -11.84375 "/></g></g></g><g fill="#000000" fill-opacity="1"><g transform="translate(196.943676, 322.772645)"><g><path d="M 17.609375 0 L 11.25 0 L 11.25 -0.46875 C 11.925781 -0.46875 12.390625 -0.546875 12.640625 -0.703125 C 12.878906 -0.816406 13 -1.015625 13 -1.296875 C 13 -1.691406 12.835938 -2.257812 12.515625 -3 L 11.5 -5.390625 L 4.96875 -5.390625 L 3.8125 -2.46875 C 3.675781 -2.113281 3.609375 -1.789062 3.609375 -1.5 C 3.609375 -0.8125 4.175781 -0.46875 5.3125 -0.46875 L 5.3125 0 L 0.375 0 L 0.375 -0.46875 C 0.96875 -0.507812 1.429688 -0.75 1.765625 -1.1875 C 2.097656 -1.625 2.664062 -2.75 3.46875 -4.5625 L 8.65625 -16.8125 L 9.15625 -16.8125 L 15.359375 -2.640625 C 15.796875 -1.710938 16.140625 -1.128906 16.390625 -0.890625 C 16.640625 -0.648438 17.046875 -0.507812 17.609375 -0.46875 Z M 11.140625 -6.40625 L 8.25 -13.265625 L 5.390625 -6.40625 Z M 11.140625 -6.40625 "/></g></g></g><g fill="#000000" fill-opacity="1"><g transform="translate(218.281516, 322.772645)"><g><path d="M 14.890625 -4.390625 L 14.296875 0 L 0.21875 0 L 0.21875 -0.375 L 11.125 -15.5625 L 5.609375 -15.5625 C 3.941406 -15.5625 2.828125 -15.203125 2.265625 -14.484375 C 1.890625 -14.023438 1.609375 -13.28125 1.421875 -12.25 L 0.765625 -12.25 L 1.265625 -16.515625 L 14.390625 -16.515625 L 14.390625 -16.140625 L 3.609375 -0.953125 L 10.03125 -0.953125 C 11.488281 -0.953125 12.523438 -1.273438 13.140625 -1.921875 C 13.554688 -2.390625 13.945312 -3.210938 14.3125 -4.390625 Z M 14.890625 -4.390625 "/></g></g></g></svg>